<?xml version="1.0" encoding="UTF-8"?>
<svg xmlns="http://www.w3.org/2000/svg" xmlns:xlink="http://www.w3.org/1999/xlink" width="20px" height="20px" viewBox="0 0 20 20" version="1.1">
<g id="surface1">
<path style=" stroke:none;fill-rule:nonzero;fill:rgb(0%,0%,0%);fill-opacity:1;" d="M 17.070312 2.929688 C 13.164062 -0.976562 6.835938 -0.976562 2.929688 2.929688 C -0.976562 6.835938 -0.976562 13.164062 2.929688 17.070312 C 6.835938 20.976562 13.164062 20.976562 17.070312 17.070312 C 20.976562 13.164062 20.976562 6.835938 17.070312 2.929688 Z M 14.988281 12.410156 C 15.203125 12.625 15.203125 12.972656 14.988281 13.183594 L 13.183594 14.988281 C 12.972656 15.203125 12.625 15.203125 12.410156 14.988281 L 10 12.578125 L 7.589844 14.988281 C 7.375 15.203125 7.027344 15.203125 6.816406 14.988281 L 5.011719 13.183594 C 4.796875 12.972656 4.796875 12.625 5.011719 12.410156 L 7.421875 10 L 5.011719 7.589844 C 4.796875 7.375 4.796875 7.027344 5.011719 6.816406 L 6.816406 5.011719 C 7.027344 4.796875 7.375 4.796875 7.589844 5.011719 L 10 7.421875 L 12.410156 5.011719 C 12.625 4.796875 12.972656 4.796875 13.183594 5.011719 L 14.988281 6.816406 C 15.203125 7.027344 15.203125 7.375 14.988281 7.589844 L 12.578125 10 Z M 14.988281 12.410156 "/>
</g>
</svg>
