<?xml version="1.0" encoding="UTF-8"?>
<svg xmlns="http://www.w3.org/2000/svg" xmlns:xlink="http://www.w3.org/1999/xlink" width="20px" height="20px" viewBox="0 0 20 20" version="1.1">
<g id="surface1">
<path style=" stroke:none;fill-rule:nonzero;fill:rgb(0%,0%,0%);fill-opacity:1;" d="M 10 0 C 4.484375 0 0 4.484375 0 10 C 0 15.515625 4.484375 20 10 20 C 15.515625 20 20 15.515625 20 10 C 20 4.484375 15.515625 0 10 0 Z M 10 18.359375 C 5.390625 18.359375 1.640625 14.609375 1.640625 10 C 1.640625 5.390625 5.390625 1.640625 10 1.640625 C 14.609375 1.640625 18.359375 5.390625 18.359375 10 C 18.359375 14.609375 14.609375 18.359375 10 18.359375 Z M 10 18.359375 "/>
<path style=" stroke:none;fill-rule:nonzero;fill:rgb(0%,0%,0%);fill-opacity:1;" d="M 11.160156 10 L 13.988281 7.171875 C 14.308594 6.851562 14.308594 6.332031 13.988281 6.011719 C 13.667969 5.691406 13.148438 5.691406 12.828125 6.011719 L 10 8.839844 L 7.171875 6.011719 C 6.851562 5.691406 6.332031 5.691406 6.011719 6.011719 C 5.691406 6.332031 5.691406 6.851562 6.011719 7.171875 L 8.839844 10 L 6.011719 12.828125 C 5.691406 13.148438 5.691406 13.667969 6.011719 13.988281 C 6.171875 14.148438 6.382812 14.226562 6.59375 14.226562 C 6.800781 14.226562 7.011719 14.148438 7.171875 13.988281 L 10 11.160156 L 12.828125 13.988281 C 12.988281 14.148438 13.199219 14.226562 13.40625 14.226562 C 13.617188 14.226562 13.828125 14.148438 13.988281 13.988281 C 14.308594 13.667969 14.308594 13.148438 13.988281 12.828125 Z M 11.160156 10 "/>
</g>
</svg>
