<?xml version="1.0" encoding="UTF-8"?>
<svg xmlns="http://www.w3.org/2000/svg" xmlns:xlink="http://www.w3.org/1999/xlink" width="20px" height="20px" viewBox="0 0 20 20" version="1.1">
<g id="surface1">
<path style="fill-rule:nonzero;fill:rgb(100%,100%,100%);fill-opacity:1;stroke-width:1;stroke-linecap:butt;stroke-linejoin:miter;stroke:rgb(100%,100%,100%);stroke-opacity:1;stroke-miterlimit:4;" d="M 16 29 C 8.81875 29 3 23.18125 3 16 C 3 8.81875 8.81875 3 16 3 C 23.18125 3 29 8.81875 29 16 C 29 23.18125 23.18125 29 16 29 Z M 21.9625 12.20625 C 22.20625 11.9625 22.20625 11.56875 21.9625 11.325 L 20.63125 10 C 20.3875 9.75 19.99375 9.75 19.75 10 L 15.9875 13.75625 L 12.225 10 C 11.98125 9.75 11.5875 9.75 11.34375 10 L 10.0125 11.325 C 9.76875 11.56875 9.76875 11.9625 10.0125 12.20625 L 13.775 15.96875 L 10.0125 19.73125 C 9.76875 19.975 9.76875 20.375 10.0125 20.61875 L 11.34375 21.94375 C 11.5875 22.1875 11.98125 22.1875 12.225 21.94375 L 15.9875 18.18125 L 19.75 21.94375 C 19.99375 22.1875 20.3875 22.1875 20.63125 21.94375 L 21.9625 20.61875 C 22.20625 20.375 22.20625 19.975 21.9625 19.73125 L 18.2 15.96875 Z M 21.9625 12.20625 " transform="matrix(0.625,0,0,0.625,0,0)"/>
</g>
</svg>
