<?xml version="1.0" encoding="UTF-8"?>
<svg xmlns="http://www.w3.org/2000/svg" xmlns:xlink="http://www.w3.org/1999/xlink" width="20px" height="20px" viewBox="0 0 20 20" version="1.1">
<g id="surface1">
<path style="fill-rule:nonzero;fill:rgb(100%,100%,100%);fill-opacity:1;stroke-width:1;stroke-linecap:butt;stroke-linejoin:miter;stroke:rgb(100%,100%,100%);stroke-opacity:1;stroke-miterlimit:4;" d="M 16 29 C 8.81875 29 3 23.18125 3 16 C 3 8.81875 8.81875 3 16 3 C 23.18125 3 29 8.81875 29 16 C 29 23.18125 23.18125 29 16 29 Z M 16 6 C 10.475 6 6 10.475 6 16 C 6 21.525 10.475 26 16 26 C 21.525 26 26 21.525 26 16 C 26 10.475 21.525 6 16 6 Z M 20.5375 19.5375 L 19.525 20.55 C 19.3375 20.7375 19.0375 20.7375 18.85 20.55 L 15.975 17.68125 L 13.10625 20.55 C 12.91875 20.7375 12.61875 20.7375 12.43125 20.55 L 11.41875 19.5375 C 11.23125 19.35 11.23125 19.05 11.41875 18.8625 L 14.2875 15.99375 L 11.41875 13.11875 C 11.23125 12.93125 11.23125 12.63125 11.41875 12.44375 L 12.43125 11.43125 C 12.61875 11.24375 12.91875 11.24375 13.10625 11.43125 L 15.975 14.3 L 18.85 11.43125 C 19.0375 11.24375 19.3375 11.24375 19.525 11.43125 L 20.5375 12.44375 C 20.725 12.63125 20.725 12.93125 20.5375 13.11875 L 17.66875 15.99375 L 20.5375 18.8625 C 20.725 19.05 20.725 19.35 20.5375 19.5375 Z M 20.5375 19.5375 " transform="matrix(0.625,0,0,0.625,0,0)"/>
</g>
</svg>
